<svg width="28" height="28" viewBox="0 0 35 35" fill="#ffffff" xmlns="http://www.w3.org/2000/svg">
    <path d="M31.9984 15.7688C31.9924 15.3664 31.7932 14.9914 31.4629 14.7614C31.1328 14.5314 30.712 14.4744 30.3324 14.6084C30.0663 14.7024 29.7862 14.75 29.5 14.75C28.0512 14.75 27.5188 13.5103 27.3571 12.9773C27.1663 12.3481 26.5211 11.9741 25.8798 12.1221C25.512 12.207 25.1319 12.25 24.75 12.25C21.8996 12.25 19.75 10.2079 19.75 7.5C19.75 7.11812 19.793 6.738 19.8779 6.37012C20.0257 5.72944 19.6519 5.08375 19.0228 4.89294C17.9789 4.57631 17.25 3.59231 17.25 2.5C17.25 2.21381 17.2977 1.93369 17.3916 1.66744C17.5256 1.28781 17.4685 0.866875 17.2383 0.536625C17.0081 0.206375 16.6329 0.00725 16.2304 0.0015625C16.1537 0.0005625 16.0769 0 16 0C7.028 0 0 7.028 0 16C0 24.972 7.028 32 16 32C24.972 32 32 24.972 32 16C32 15.9228 31.9994 15.8457 31.9984 15.7688ZM16 29.5C8.42994 29.5 2.5 23.5701 2.5 16C2.5 8.85175 7.78725 3.166 14.7503 2.5545C14.7616 3.62875 15.1082 4.64819 15.7542 5.50594C16.1647 6.05113 16.6879 6.50812 17.2783 6.84544C17.2594 7.06281 17.25 7.28131 17.25 7.5C17.25 11.5654 20.5444 14.75 24.75 14.75C24.9611 14.75 25.1721 14.7412 25.3819 14.7236C26.2089 16.2891 27.6906 17.2306 29.4455 17.2497C28.834 24.2127 23.1483 29.5 16 29.5Z" />
    <path d="M25.75 9.75C27.8177 9.75 29.5 8.06775 29.5 6C29.5 3.93225 27.8177 2.25 25.75 2.25C23.6823 2.25 22 3.93225 22 6C22 8.06775 23.6823 9.75 25.75 9.75ZM25.75 4.75C26.4392 4.75 27 5.31075 27 6C27 6.68925 26.4392 7.25 25.75 7.25C25.0608 7.25 24.5 6.68925 24.5 6C24.5 5.31075 25.0608 4.75 25.75 4.75Z" />
    <path d="M11 14.75C13.0677 14.75 14.75 13.0677 14.75 11C14.75 8.93225 13.0677 7.25 11 7.25C8.93225 7.25 7.25 8.93225 7.25 11C7.25 13.0677 8.93225 14.75 11 14.75ZM11 9.75C11.6892 9.75 12.25 10.3108 12.25 11C12.25 11.6892 11.6892 12.25 11 12.25C10.3108 12.25 9.75 11.6892 9.75 11C9.75 10.3108 10.3108 9.75 11 9.75Z" />
    <path d="M11 17.25C8.93225 17.25 7.25 18.9323 7.25 21C7.25 23.0677 8.93225 24.75 11 24.75C13.0677 24.75 14.75 23.0677 14.75 21C14.75 18.9323 13.0677 17.25 11 17.25ZM11 22.25C10.3108 22.25 9.75 21.6892 9.75 21C9.75 20.3108 10.3108 19.75 11 19.75C11.6892 19.75 12.25 20.3108 12.25 21C12.25 21.6892 11.6892 22.25 11 22.25Z" />
    <path d="M21 17.25C18.9323 17.25 17.25 18.9323 17.25 21C17.25 23.0677 18.9323 24.75 21 24.75C23.0677 24.75 24.75 23.0677 24.75 21C24.75 18.9323 23.0677 17.25 21 17.25ZM21 22.25C20.3108 22.25 19.75 21.6892 19.75 21C19.75 20.3108 20.3108 19.75 21 19.75C21.6892 19.75 22.25 20.3108 22.25 21C22.25 21.6892 21.6892 22.25 21 22.25Z" />
    <path d="M30.75 2.5C31.4404 2.5 32 1.94036 32 1.25C32 0.559644 31.4404 0 30.75 0C30.0596 0 29.5 0.559644 29.5 1.25C29.5 1.94036 30.0596 2.5 30.75 2.5Z" />
    <path d="M30.75 12.25C31.4404 12.25 32 11.6904 32 11C32 10.3096 31.4404 9.75 30.75 9.75C30.0596 9.75 29.5 10.3096 29.5 11C29.5 11.6904 30.0596 12.25 30.75 12.25Z" />
    <path d="M16 17.25C16.6904 17.25 17.25 16.6904 17.25 16C17.25 15.3096 16.6904 14.75 16 14.75C15.3096 14.75 14.75 15.3096 14.75 16C14.75 16.6904 15.3096 17.25 16 17.25Z" />
    <path d="M6 17.25C6.69036 17.25 7.25 16.6904 7.25 16C7.25 15.3096 6.69036 14.75 6 14.75C5.30964 14.75 4.75 15.3096 4.75 16C4.75 16.6904 5.30964 17.25 6 17.25Z" />
    <path d="M16 27.25C16.6904 27.25 17.25 26.6904 17.25 26C17.25 25.3096 16.6904 24.75 16 24.75C15.3096 24.75 14.75 25.3096 14.75 26C14.75 26.6904 15.3096 27.25 16 27.25Z" />
</svg>