<svg width="60" height="60" viewBox="0 0 98 98" fill="none" xmlns="http://www.w3.org/2000/svg">
<path d="M49 0C21.9803 0 0 21.9803 0 49C0 76.0197 21.9803 98 49 98C76.0197 98 98 76.0197 98 49C98 21.9803 76.0197 0 49 0Z" fill="#FC393D"/>
<path d="M73.8356 38.6162L47.2937 65.1574C46.4974 65.9537 45.4522 66.3544 44.4069 66.3544C43.3617 66.3544 42.3164 65.9537 41.5201 65.1574L28.2495 51.8868C26.6525 50.2905 26.6525 47.7095 28.2495 46.1132C29.8458 44.5162 32.4261 44.5162 34.0231 46.1132L44.4069 56.497L68.062 32.8426C69.6583 31.2456 72.2386 31.2456 73.8356 32.8426C75.4319 34.4389 75.4319 37.0192 73.8356 38.6162Z" fill="#FAFAFA"/>
</svg>
